<mxfile host="app.diagrams.net" modified="2022-10-04T03:36:06.330Z" agent="5.0 (Windows NT 10.0; Win64; x64) AppleWebKit/537.36 (KHTML, like Gecko) Chrome/105.0.0.0 Safari/537.36 Edg/105.0.1343.53" etag="vj1uOZx45ZrwrTGXSNGF" version="20.3.3" type="github">
  <diagram id="hJp9Cb7KLexVjKm1sbrY" name="第 1 页">
    <mxGraphModel dx="1807" dy="1694" grid="1" gridSize="10" guides="1" tooltips="1" connect="1" arrows="1" fold="1" page="1" pageScale="1" pageWidth="827" pageHeight="1169" math="1" shadow="0">
      <root>
        <mxCell id="0" />
        <mxCell id="1" parent="0" />
        <mxCell id="CPpen95AD1g5v73k_SBk-2" value="" style="rounded=1;whiteSpace=wrap;html=1;dashed=1;" vertex="1" parent="1">
          <mxGeometry x="440" y="420" width="260" height="230" as="geometry" />
        </mxCell>
        <mxCell id="CPpen95AD1g5v73k_SBk-8" value="&lt;span style=&quot;color: rgba(0, 0, 0, 0); font-family: monospace; font-size: 0px; text-align: start;&quot;&gt;%3CmxGraphModel%3E%3Croot%3E%3CmxCell%20id%3D%220%22%2F%3E%3CmxCell%20id%3D%221%22%20parent%3D%220%22%2F%3E%3CmxCell%20id%3D%222%22%20value%3D%22%22%20style%3D%22endArrow%3Dclassic%3Bhtml%3D1%3Brounded%3D0%3B%22%20edge%3D%221%22%20parent%3D%221%22%3E%3CmxGeometry%20width%3D%2250%22%20height%3D%2250%22%20relative%3D%221%22%20as%3D%22geometry%22%3E%3CmxPoint%20x%3D%22350%22%20y%3D%22180%22%20as%3D%22sourcePoint%22%2F%3E%3CmxPoint%20x%3D%22350%22%20y%3D%22260%22%20as%3D%22targetPoint%22%2F%3E%3C%2FmxGeometry%3E%3C%2FmxCell%3E%3C%2Froot%3E%3C%2FmxGraphModel%3E$$&lt;/span&gt;" style="text;html=1;align=center;verticalAlign=middle;resizable=0;points=[];autosize=1;strokeColor=none;fillColor=none;" vertex="1" parent="1">
          <mxGeometry x="195" y="110" width="20" height="30" as="geometry" />
        </mxCell>
        <mxCell id="CPpen95AD1g5v73k_SBk-11" value="&lt;span style=&quot;font-family: Helvetica;&quot;&gt;$$X_{t-P}$$&lt;/span&gt;" style="text;html=1;align=center;verticalAlign=middle;resizable=0;points=[];autosize=1;strokeColor=none;fillColor=none;fontSize=14;fontFamily=Verdana;" vertex="1" parent="1">
          <mxGeometry x="40" y="65" width="100" height="30" as="geometry" />
        </mxCell>
        <mxCell id="CPpen95AD1g5v73k_SBk-12" value="HO-GRU" style="rounded=1;whiteSpace=wrap;html=1;fontFamily=Verdana;fontSize=14;fillColor=#ffe6cc;strokeColor=#d79b00;" vertex="1" parent="1">
          <mxGeometry x="455" y="280" width="90" height="50" as="geometry" />
        </mxCell>
        <mxCell id="CPpen95AD1g5v73k_SBk-13" value="" style="rounded=1;whiteSpace=wrap;html=1;fontFamily=Verdana;fontSize=14;fillColor=#d5e8d4;strokeColor=#82b366;" vertex="1" parent="1">
          <mxGeometry x="760" y="630" width="120" height="60" as="geometry" />
        </mxCell>
        <mxCell id="CPpen95AD1g5v73k_SBk-15" value="" style="rounded=1;whiteSpace=wrap;html=1;fontFamily=Verdana;fontSize=14;dashed=1;" vertex="1" parent="1">
          <mxGeometry x="131.25" y="350" width="90" height="100" as="geometry" />
        </mxCell>
        <mxCell id="CPpen95AD1g5v73k_SBk-19" value="" style="endArrow=classic;html=1;rounded=0;" edge="1" parent="1">
          <mxGeometry width="50" height="50" relative="1" as="geometry">
            <mxPoint x="90" y="85" as="sourcePoint" />
            <mxPoint x="90" y="115" as="targetPoint" />
          </mxGeometry>
        </mxCell>
        <mxCell id="CPpen95AD1g5v73k_SBk-21" value="&lt;font face=&quot;Helvetica&quot; style=&quot;font-size: 12px;&quot;&gt;Diffusion convolution&lt;/font&gt;" style="rounded=1;whiteSpace=wrap;html=1;dashed=1;fontFamily=Verdana;fontSize=14;fillColor=#d5e8d4;strokeColor=#82b366;" vertex="1" parent="1">
          <mxGeometry x="136.25" y="360" width="80" height="40" as="geometry" />
        </mxCell>
        <mxCell id="CPpen95AD1g5v73k_SBk-24" value="" style="endArrow=classic;html=1;rounded=0;" edge="1" parent="1">
          <mxGeometry width="50" height="50" relative="1" as="geometry">
            <mxPoint x="175.91" y="400" as="sourcePoint" />
            <mxPoint x="176.25" y="420" as="targetPoint" />
          </mxGeometry>
        </mxCell>
        <mxCell id="CPpen95AD1g5v73k_SBk-91" style="edgeStyle=orthogonalEdgeStyle;rounded=0;orthogonalLoop=1;jettySize=auto;html=1;fontFamily=Helvetica;fontSize=21;endArrow=classic;endFill=1;" edge="1" parent="1" source="CPpen95AD1g5v73k_SBk-25">
          <mxGeometry relative="1" as="geometry">
            <mxPoint x="176.25000000000023" y="470" as="targetPoint" />
          </mxGeometry>
        </mxCell>
        <mxCell id="CPpen95AD1g5v73k_SBk-25" value="&lt;font style=&quot;font-size: 11px;&quot;&gt;$$ReLU$$&lt;/font&gt;" style="text;html=1;align=center;verticalAlign=middle;resizable=0;points=[];autosize=1;strokeColor=none;fillColor=none;fontSize=11;fontFamily=Helvetica;" vertex="1" parent="1">
          <mxGeometry x="136.25" y="420" width="80" height="30" as="geometry" />
        </mxCell>
        <mxCell id="CPpen95AD1g5v73k_SBk-29" value="&lt;font style=&quot;font-size: 14px;&quot;&gt;$$H_{t-P}$$&lt;/font&gt;" style="text;html=1;align=center;verticalAlign=middle;resizable=0;points=[];autosize=1;strokeColor=none;fillColor=none;" vertex="1" parent="1">
          <mxGeometry x="525" y="-40" width="100" height="30" as="geometry" />
        </mxCell>
        <mxCell id="CPpen95AD1g5v73k_SBk-30" value="&lt;span style=&quot;font-family: Helvetica;&quot;&gt;$$X_{t-P}$$&lt;/span&gt;" style="text;html=1;align=center;verticalAlign=middle;resizable=0;points=[];autosize=1;strokeColor=none;fillColor=none;fontSize=14;fontFamily=Verdana;" vertex="1" parent="1">
          <mxGeometry x="414" y="80" width="100" height="30" as="geometry" />
        </mxCell>
        <mxCell id="CPpen95AD1g5v73k_SBk-31" value="HO-GRU" style="rounded=1;whiteSpace=wrap;html=1;fontFamily=Verdana;fontSize=14;fillColor=#ffe6cc;strokeColor=#d79b00;" vertex="1" parent="1">
          <mxGeometry x="540" y="60" width="90" height="50" as="geometry" />
        </mxCell>
        <mxCell id="CPpen95AD1g5v73k_SBk-32" value="" style="rounded=1;whiteSpace=wrap;html=1;fontFamily=Verdana;fontSize=14;dashed=1;" vertex="1" parent="1">
          <mxGeometry x="540" y="130" width="90" height="100" as="geometry" />
        </mxCell>
        <mxCell id="CPpen95AD1g5v73k_SBk-33" value="" style="endArrow=classic;html=1;rounded=0;" edge="1" parent="1">
          <mxGeometry width="50" height="50" relative="1" as="geometry">
            <mxPoint x="584.6600000000001" y="110" as="sourcePoint" />
            <mxPoint x="585" y="130" as="targetPoint" />
          </mxGeometry>
        </mxCell>
        <mxCell id="CPpen95AD1g5v73k_SBk-34" value="" style="endArrow=classic;html=1;rounded=0;" edge="1" parent="1">
          <mxGeometry width="50" height="50" relative="1" as="geometry">
            <mxPoint x="620" y="-10" as="sourcePoint" />
            <mxPoint x="620" y="60" as="targetPoint" />
            <Array as="points">
              <mxPoint x="620" y="30" />
            </Array>
          </mxGeometry>
        </mxCell>
        <mxCell id="CPpen95AD1g5v73k_SBk-35" value="&lt;font face=&quot;Helvetica&quot; style=&quot;font-size: 12px;&quot;&gt;Diffusion convolution&lt;/font&gt;" style="rounded=1;whiteSpace=wrap;html=1;dashed=1;fontFamily=Verdana;fontSize=14;fillColor=#d5e8d4;strokeColor=#82b366;" vertex="1" parent="1">
          <mxGeometry x="545" y="140" width="80" height="40" as="geometry" />
        </mxCell>
        <mxCell id="CPpen95AD1g5v73k_SBk-36" value="" style="endArrow=classic;html=1;rounded=0;" edge="1" parent="1">
          <mxGeometry width="50" height="50" relative="1" as="geometry">
            <mxPoint x="584.6600000000001" y="180" as="sourcePoint" />
            <mxPoint x="585" y="200" as="targetPoint" />
          </mxGeometry>
        </mxCell>
        <mxCell id="CPpen95AD1g5v73k_SBk-38" value="&lt;font style=&quot;font-size: 11px;&quot;&gt;$$ReLU$$&lt;/font&gt;" style="text;html=1;align=center;verticalAlign=middle;resizable=0;points=[];autosize=1;strokeColor=none;fillColor=none;fontSize=11;fontFamily=Helvetica;" vertex="1" parent="1">
          <mxGeometry x="545" y="200" width="80" height="30" as="geometry" />
        </mxCell>
        <mxCell id="CPpen95AD1g5v73k_SBk-39" value="" style="endArrow=classic;html=1;rounded=0;fontFamily=Helvetica;fontSize=11;" edge="1" parent="1">
          <mxGeometry width="50" height="50" relative="1" as="geometry">
            <mxPoint x="450" y="250" as="sourcePoint" />
            <mxPoint x="560" y="30" as="targetPoint" />
            <Array as="points">
              <mxPoint x="500" y="250" />
              <mxPoint x="500" y="30" />
            </Array>
          </mxGeometry>
        </mxCell>
        <mxCell id="CPpen95AD1g5v73k_SBk-50" style="edgeStyle=orthogonalEdgeStyle;rounded=0;orthogonalLoop=1;jettySize=auto;html=1;entryX=0.444;entryY=-0.045;entryDx=0;entryDy=0;entryPerimeter=0;fontFamily=Helvetica;fontSize=20;endArrow=classic;endFill=1;" edge="1" parent="1" source="CPpen95AD1g5v73k_SBk-42" target="CPpen95AD1g5v73k_SBk-31">
          <mxGeometry relative="1" as="geometry" />
        </mxCell>
        <mxCell id="CPpen95AD1g5v73k_SBk-42" value="Cat" style="whiteSpace=wrap;html=1;fontFamily=Helvetica;fontSize=11;" vertex="1" parent="1">
          <mxGeometry x="560" y="20" width="40" height="20" as="geometry" />
        </mxCell>
        <mxCell id="CPpen95AD1g5v73k_SBk-43" value="" style="endArrow=classic;html=1;rounded=0;" edge="1" parent="1">
          <mxGeometry width="50" height="50" relative="1" as="geometry">
            <mxPoint x="579.66" y="-10" as="sourcePoint" />
            <mxPoint x="579.66" y="20" as="targetPoint" />
          </mxGeometry>
        </mxCell>
        <mxCell id="CPpen95AD1g5v73k_SBk-45" value="&lt;b&gt;&lt;font style=&quot;font-size: 20px;&quot;&gt;$$...$$&lt;/font&gt;&lt;/b&gt;" style="text;html=1;align=center;verticalAlign=middle;resizable=0;points=[];autosize=1;strokeColor=none;fillColor=none;fontSize=11;fontFamily=Helvetica;" vertex="1" parent="1">
          <mxGeometry x="380" y="210" width="80" height="40" as="geometry" />
        </mxCell>
        <mxCell id="CPpen95AD1g5v73k_SBk-56" value="&lt;span style=&quot;font-family: Helvetica;&quot;&gt;$$X_{t-P}$$&lt;/span&gt;" style="text;html=1;align=center;verticalAlign=middle;resizable=0;points=[];autosize=1;strokeColor=none;fillColor=none;fontSize=14;fontFamily=Verdana;" vertex="1" parent="1">
          <mxGeometry x="50" y="240" width="100" height="30" as="geometry" />
        </mxCell>
        <mxCell id="CPpen95AD1g5v73k_SBk-58" value="&lt;font style=&quot;font-size: 11px;&quot;&gt;$$H_{t-1}$$&lt;/font&gt;" style="whiteSpace=wrap;html=1;fontFamily=Helvetica;fontSize=20;strokeColor=#FF9933;" vertex="1" parent="1">
          <mxGeometry x="10" y="255" width="50" height="30" as="geometry" />
        </mxCell>
        <mxCell id="CPpen95AD1g5v73k_SBk-61" value="&lt;font style=&quot;font-size: 11px;&quot;&gt;$$H_{t-K}$$&lt;/font&gt;" style="whiteSpace=wrap;html=1;fontFamily=Helvetica;fontSize=20;strokeColor=#FF8000;" vertex="1" parent="1">
          <mxGeometry x="10" y="325" width="50" height="30" as="geometry" />
        </mxCell>
        <mxCell id="CPpen95AD1g5v73k_SBk-73" style="edgeStyle=orthogonalEdgeStyle;rounded=0;orthogonalLoop=1;jettySize=auto;html=1;fontFamily=Helvetica;fontSize=10;endArrow=classic;endFill=1;" edge="1" parent="1" source="CPpen95AD1g5v73k_SBk-62">
          <mxGeometry relative="1" as="geometry">
            <mxPoint x="110.00000000000023" y="307.4999999999998" as="targetPoint" />
          </mxGeometry>
        </mxCell>
        <mxCell id="CPpen95AD1g5v73k_SBk-62" value="" style="rounded=1;whiteSpace=wrap;html=1;fontFamily=Helvetica;fontSize=11;fillColor=none;dashed=1;" vertex="1" parent="1">
          <mxGeometry x="-5" y="250" width="75" height="115" as="geometry" />
        </mxCell>
        <mxCell id="CPpen95AD1g5v73k_SBk-68" value="" style="shape=waypoint;sketch=0;fillStyle=solid;size=6;pointerEvents=1;points=[];fillColor=none;resizable=0;rotatable=0;perimeter=centerPerimeter;snapToPoint=1;dashed=1;strokeColor=#000000;fontFamily=Helvetica;fontSize=10;strokeWidth=0;" vertex="1" parent="1">
          <mxGeometry x="15" y="275" width="40" height="40" as="geometry" />
        </mxCell>
        <mxCell id="CPpen95AD1g5v73k_SBk-69" value="" style="shape=waypoint;sketch=0;fillStyle=solid;size=6;pointerEvents=1;points=[];fillColor=none;resizable=0;rotatable=0;perimeter=centerPerimeter;snapToPoint=1;dashed=1;strokeColor=#000000;fontFamily=Helvetica;fontSize=10;strokeWidth=0;" vertex="1" parent="1">
          <mxGeometry x="15" y="295" width="40" height="40" as="geometry" />
        </mxCell>
        <mxCell id="CPpen95AD1g5v73k_SBk-70" value="" style="shape=waypoint;sketch=0;fillStyle=solid;size=6;pointerEvents=1;points=[];fillColor=none;resizable=0;rotatable=0;perimeter=centerPerimeter;snapToPoint=1;dashed=1;strokeColor=#000000;fontFamily=Helvetica;fontSize=10;strokeWidth=0;" vertex="1" parent="1">
          <mxGeometry x="15" y="285" width="40" height="40" as="geometry" />
        </mxCell>
        <mxCell id="CPpen95AD1g5v73k_SBk-71" value="" style="endArrow=classic;html=1;rounded=0;fontFamily=Helvetica;fontSize=10;entryX=0;entryY=0.5;entryDx=0;entryDy=0;" edge="1" parent="1" target="CPpen95AD1g5v73k_SBk-58">
          <mxGeometry width="50" height="50" relative="1" as="geometry">
            <mxPoint x="-30" y="270" as="sourcePoint" />
            <mxPoint x="10" y="225" as="targetPoint" />
          </mxGeometry>
        </mxCell>
        <mxCell id="CPpen95AD1g5v73k_SBk-72" value="" style="endArrow=classic;html=1;rounded=0;fontFamily=Helvetica;fontSize=10;entryX=0;entryY=0.5;entryDx=0;entryDy=0;" edge="1" parent="1">
          <mxGeometry width="50" height="50" relative="1" as="geometry">
            <mxPoint x="-29.999999999999773" y="339.65999999999974" as="sourcePoint" />
            <mxPoint x="10.000000000000227" y="339.65999999999974" as="targetPoint" />
          </mxGeometry>
        </mxCell>
        <mxCell id="CPpen95AD1g5v73k_SBk-74" value="$$Cat$$" style="text;html=1;align=center;verticalAlign=middle;resizable=0;points=[];autosize=1;strokeColor=none;fillColor=none;fontSize=10;fontFamily=Helvetica;" vertex="1" parent="1">
          <mxGeometry x="50" y="280" width="70" height="30" as="geometry" />
        </mxCell>
        <mxCell id="CPpen95AD1g5v73k_SBk-85" value="" style="edgeStyle=orthogonalEdgeStyle;rounded=0;orthogonalLoop=1;jettySize=auto;html=1;fontFamily=Helvetica;fontSize=21;endArrow=classic;endFill=1;" edge="1" parent="1" source="CPpen95AD1g5v73k_SBk-75" target="CPpen95AD1g5v73k_SBk-80">
          <mxGeometry relative="1" as="geometry" />
        </mxCell>
        <mxCell id="CPpen95AD1g5v73k_SBk-75" value="FC" style="rounded=0;whiteSpace=wrap;html=1;dashed=1;strokeColor=#000000;strokeWidth=0;fontFamily=Helvetica;fontSize=10;fillColor=#FFCC99;" vertex="1" parent="1">
          <mxGeometry x="110" y="300" width="30" height="15" as="geometry" />
        </mxCell>
        <mxCell id="CPpen95AD1g5v73k_SBk-79" style="edgeStyle=orthogonalEdgeStyle;rounded=0;orthogonalLoop=1;jettySize=auto;html=1;fontFamily=Helvetica;fontSize=10;endArrow=classic;endFill=1;entryX=0.5;entryY=0;entryDx=0;entryDy=0;" edge="1" parent="1" source="CPpen95AD1g5v73k_SBk-76" target="CPpen95AD1g5v73k_SBk-80">
          <mxGeometry relative="1" as="geometry">
            <mxPoint x="176.25000000000023" y="282.4999999999998" as="targetPoint" />
          </mxGeometry>
        </mxCell>
        <mxCell id="CPpen95AD1g5v73k_SBk-76" value="FC" style="rounded=0;whiteSpace=wrap;html=1;dashed=1;strokeColor=#000000;strokeWidth=0;fontFamily=Helvetica;fontSize=10;fillColor=#FFCC99;" vertex="1" parent="1">
          <mxGeometry x="161.25" y="247.5" width="30" height="15" as="geometry" />
        </mxCell>
        <mxCell id="CPpen95AD1g5v73k_SBk-90" style="edgeStyle=orthogonalEdgeStyle;rounded=0;orthogonalLoop=1;jettySize=auto;html=1;entryX=0.5;entryY=0;entryDx=0;entryDy=0;fontFamily=Helvetica;fontSize=21;endArrow=classic;endFill=1;" edge="1" parent="1" source="CPpen95AD1g5v73k_SBk-80" target="CPpen95AD1g5v73k_SBk-15">
          <mxGeometry relative="1" as="geometry" />
        </mxCell>
        <mxCell id="CPpen95AD1g5v73k_SBk-80" value="&lt;font style=&quot;font-size: 21px;&quot;&gt;+&lt;/font&gt;" style="ellipse;whiteSpace=wrap;html=1;aspect=fixed;dashed=1;strokeColor=#6c8ebf;strokeWidth=0;fontFamily=Helvetica;fontSize=10;fillColor=#dae8fc;" vertex="1" parent="1">
          <mxGeometry x="162.5" y="295" width="27.5" height="27.5" as="geometry" />
        </mxCell>
        <mxCell id="CPpen95AD1g5v73k_SBk-92" value="&lt;font style=&quot;font-size: 14px;&quot;&gt;$$H_t$$&lt;/font&gt;" style="text;html=1;align=center;verticalAlign=middle;resizable=0;points=[];autosize=1;strokeColor=none;fillColor=none;fontSize=21;fontFamily=Helvetica;" vertex="1" parent="1">
          <mxGeometry x="111.25" y="450" width="80" height="40" as="geometry" />
        </mxCell>
        <mxCell id="CPpen95AD1g5v73k_SBk-93" value="" style="endArrow=classic;html=1;rounded=0;fontFamily=Helvetica;fontSize=14;" edge="1" parent="1">
          <mxGeometry width="50" height="50" relative="1" as="geometry">
            <mxPoint x="120" y="255" as="sourcePoint" />
            <mxPoint x="160" y="255" as="targetPoint" />
          </mxGeometry>
        </mxCell>
        <mxCell id="CPpen95AD1g5v73k_SBk-95" value="" style="rounded=0;whiteSpace=wrap;html=1;dashed=1;strokeColor=#000000;strokeWidth=1;fontFamily=Helvetica;fontSize=14;fillColor=none;" vertex="1" parent="1">
          <mxGeometry x="-50" y="240" width="310" height="250" as="geometry" />
        </mxCell>
        <mxCell id="CPpen95AD1g5v73k_SBk-96" value="MHGRU" style="text;html=1;align=center;verticalAlign=middle;resizable=0;points=[];autosize=1;strokeColor=none;fillColor=none;fontSize=14;fontFamily=Helvetica;" vertex="1" parent="1">
          <mxGeometry x="-7.5" y="390" width="80" height="30" as="geometry" />
        </mxCell>
      </root>
    </mxGraphModel>
  </diagram>
</mxfile>
